<mxfile host="app.diagrams.net" modified="2020-11-24T07:43:05.901Z" agent="5.0 (Macintosh; Intel Mac OS X 10_15_4) AppleWebKit/537.36 (KHTML, like Gecko) Chrome/86.0.4240.183 Safari/537.36" etag="ksfBtEouV5MmKoF1hobd" version="13.9.7" type="github" pages="2">
  <diagram id="2udTHebx2r1BKwhgpGDc" name="Page-1">
    <mxGraphModel dx="2066" dy="1074" grid="1" gridSize="10" guides="1" tooltips="1" connect="1" arrows="1" fold="1" page="1" pageScale="1" pageWidth="827" pageHeight="1169" math="0" shadow="0">
      <root>
        <mxCell id="0" />
        <mxCell id="1" parent="0" />
        <mxCell id="jNB3o_RYDr2XuxS2xqDh-2" value="抽奖规则" style="rounded=1;whiteSpace=wrap;html=1;" parent="1" vertex="1">
          <mxGeometry x="520" y="90" width="120" height="60" as="geometry" />
        </mxCell>
        <mxCell id="jNB3o_RYDr2XuxS2xqDh-8" style="edgeStyle=orthogonalEdgeStyle;rounded=0;orthogonalLoop=1;jettySize=auto;html=1;" parent="1" source="jNB3o_RYDr2XuxS2xqDh-3" target="jNB3o_RYDr2XuxS2xqDh-2" edge="1">
          <mxGeometry relative="1" as="geometry">
            <Array as="points">
              <mxPoint x="450" y="270" />
              <mxPoint x="450" y="110" />
            </Array>
          </mxGeometry>
        </mxCell>
        <mxCell id="jNB3o_RYDr2XuxS2xqDh-10" style="edgeStyle=orthogonalEdgeStyle;rounded=0;orthogonalLoop=1;jettySize=auto;html=1;entryX=0;entryY=0.5;entryDx=0;entryDy=0;" parent="1" source="jNB3o_RYDr2XuxS2xqDh-3" target="jNB3o_RYDr2XuxS2xqDh-9" edge="1">
          <mxGeometry relative="1" as="geometry" />
        </mxCell>
        <mxCell id="jNB3o_RYDr2XuxS2xqDh-12" style="edgeStyle=orthogonalEdgeStyle;rounded=0;orthogonalLoop=1;jettySize=auto;html=1;" parent="1" source="jNB3o_RYDr2XuxS2xqDh-3" target="jNB3o_RYDr2XuxS2xqDh-11" edge="1">
          <mxGeometry relative="1" as="geometry" />
        </mxCell>
        <mxCell id="jNB3o_RYDr2XuxS2xqDh-3" value="校验/查询" style="rounded=0;whiteSpace=wrap;html=1;" parent="1" vertex="1">
          <mxGeometry x="190" y="240" width="120" height="60" as="geometry" />
        </mxCell>
        <mxCell id="jNB3o_RYDr2XuxS2xqDh-6" style="edgeStyle=orthogonalEdgeStyle;rounded=0;orthogonalLoop=1;jettySize=auto;html=1;entryX=0;entryY=0.5;entryDx=0;entryDy=0;" parent="1" source="jNB3o_RYDr2XuxS2xqDh-5" target="jNB3o_RYDr2XuxS2xqDh-3" edge="1">
          <mxGeometry relative="1" as="geometry" />
        </mxCell>
        <mxCell id="jNB3o_RYDr2XuxS2xqDh-7" value="抽奖规则ID" style="edgeLabel;html=1;align=center;verticalAlign=middle;resizable=0;points=[];" parent="jNB3o_RYDr2XuxS2xqDh-6" vertex="1" connectable="0">
          <mxGeometry x="-0.3538" y="1" relative="1" as="geometry">
            <mxPoint x="17.91" y="-19" as="offset" />
          </mxGeometry>
        </mxCell>
        <mxCell id="jNB3o_RYDr2XuxS2xqDh-5" value="Actor" style="shape=umlActor;verticalLabelPosition=bottom;verticalAlign=top;html=1;outlineConnect=0;" parent="1" vertex="1">
          <mxGeometry x="30" y="240" width="30" height="60" as="geometry" />
        </mxCell>
        <mxCell id="jNB3o_RYDr2XuxS2xqDh-9" value="抽奖规则下的奖品" style="rounded=1;whiteSpace=wrap;html=1;" parent="1" vertex="1">
          <mxGeometry x="520" y="240" width="120" height="60" as="geometry" />
        </mxCell>
        <mxCell id="jNB3o_RYDr2XuxS2xqDh-14" style="edgeStyle=orthogonalEdgeStyle;rounded=0;orthogonalLoop=1;jettySize=auto;html=1;" parent="1" source="jNB3o_RYDr2XuxS2xqDh-11" target="jNB3o_RYDr2XuxS2xqDh-13" edge="1">
          <mxGeometry relative="1" as="geometry" />
        </mxCell>
        <mxCell id="jNB3o_RYDr2XuxS2xqDh-11" value="抽奖计算" style="rounded=0;whiteSpace=wrap;html=1;" parent="1" vertex="1">
          <mxGeometry x="190" y="400" width="120" height="60" as="geometry" />
        </mxCell>
        <mxCell id="jNB3o_RYDr2XuxS2xqDh-13" value="奖品服务" style="rounded=0;whiteSpace=wrap;html=1;" parent="1" vertex="1">
          <mxGeometry x="520" y="400" width="120" height="60" as="geometry" />
        </mxCell>
        <mxCell id="jNB3o_RYDr2XuxS2xqDh-15" value="回调" style="text;html=1;align=center;verticalAlign=middle;resizable=0;points=[];autosize=1;" parent="1" vertex="1">
          <mxGeometry x="380" y="410" width="40" height="20" as="geometry" />
        </mxCell>
        <mxCell id="jNB3o_RYDr2XuxS2xqDh-19" style="edgeStyle=orthogonalEdgeStyle;rounded=0;orthogonalLoop=1;jettySize=auto;html=1;" parent="1" source="jNB3o_RYDr2XuxS2xqDh-16" target="jNB3o_RYDr2XuxS2xqDh-17" edge="1">
          <mxGeometry relative="1" as="geometry" />
        </mxCell>
        <mxCell id="jNB3o_RYDr2XuxS2xqDh-28" style="edgeStyle=orthogonalEdgeStyle;rounded=0;orthogonalLoop=1;jettySize=auto;html=1;entryX=0;entryY=0.5;entryDx=0;entryDy=0;" parent="1" source="jNB3o_RYDr2XuxS2xqDh-16" target="jNB3o_RYDr2XuxS2xqDh-27" edge="1">
          <mxGeometry relative="1" as="geometry" />
        </mxCell>
        <mxCell id="jNB3o_RYDr2XuxS2xqDh-16" value="创建红包" style="rounded=0;whiteSpace=wrap;html=1;" parent="1" vertex="1">
          <mxGeometry x="270" y="730" width="120" height="60" as="geometry" />
        </mxCell>
        <mxCell id="jNB3o_RYDr2XuxS2xqDh-17" value="红包规则" style="rounded=0;whiteSpace=wrap;html=1;" parent="1" vertex="1">
          <mxGeometry x="520" y="730" width="120" height="60" as="geometry" />
        </mxCell>
        <mxCell id="jNB3o_RYDr2XuxS2xqDh-22" style="edgeStyle=orthogonalEdgeStyle;rounded=0;orthogonalLoop=1;jettySize=auto;html=1;" parent="1" source="jNB3o_RYDr2XuxS2xqDh-20" target="jNB3o_RYDr2XuxS2xqDh-16" edge="1">
          <mxGeometry relative="1" as="geometry" />
        </mxCell>
        <mxCell id="jNB3o_RYDr2XuxS2xqDh-20" value="Actor" style="shape=umlActor;verticalLabelPosition=bottom;verticalAlign=top;html=1;outlineConnect=0;" parent="1" vertex="1">
          <mxGeometry x="90" y="730" width="30" height="60" as="geometry" />
        </mxCell>
        <mxCell id="jNB3o_RYDr2XuxS2xqDh-30" style="edgeStyle=orthogonalEdgeStyle;rounded=0;orthogonalLoop=1;jettySize=auto;html=1;" parent="1" source="jNB3o_RYDr2XuxS2xqDh-23" target="jNB3o_RYDr2XuxS2xqDh-29" edge="1">
          <mxGeometry relative="1" as="geometry" />
        </mxCell>
        <mxCell id="jNB3o_RYDr2XuxS2xqDh-32" style="edgeStyle=orthogonalEdgeStyle;rounded=0;orthogonalLoop=1;jettySize=auto;html=1;entryX=0;entryY=0.5;entryDx=0;entryDy=0;" parent="1" source="jNB3o_RYDr2XuxS2xqDh-23" target="jNB3o_RYDr2XuxS2xqDh-31" edge="1">
          <mxGeometry relative="1" as="geometry" />
        </mxCell>
        <mxCell id="jNB3o_RYDr2XuxS2xqDh-23" value="领取红包" style="rounded=0;whiteSpace=wrap;html=1;" parent="1" vertex="1">
          <mxGeometry x="261" y="1070" width="120" height="60" as="geometry" />
        </mxCell>
        <mxCell id="jNB3o_RYDr2XuxS2xqDh-25" style="edgeStyle=orthogonalEdgeStyle;rounded=0;orthogonalLoop=1;jettySize=auto;html=1;entryX=0;entryY=0.5;entryDx=0;entryDy=0;" parent="1" source="jNB3o_RYDr2XuxS2xqDh-24" target="jNB3o_RYDr2XuxS2xqDh-23" edge="1">
          <mxGeometry relative="1" as="geometry" />
        </mxCell>
        <mxCell id="jNB3o_RYDr2XuxS2xqDh-26" value="红包ID" style="edgeLabel;html=1;align=center;verticalAlign=middle;resizable=0;points=[];" parent="jNB3o_RYDr2XuxS2xqDh-25" vertex="1" connectable="0">
          <mxGeometry x="-0.1196" y="5" relative="1" as="geometry">
            <mxPoint x="5.12" y="-15" as="offset" />
          </mxGeometry>
        </mxCell>
        <mxCell id="jNB3o_RYDr2XuxS2xqDh-24" value="Actor" style="shape=umlActor;verticalLabelPosition=bottom;verticalAlign=top;html=1;outlineConnect=0;" parent="1" vertex="1">
          <mxGeometry x="80" y="1070" width="30" height="60" as="geometry" />
        </mxCell>
        <mxCell id="jNB3o_RYDr2XuxS2xqDh-34" style="edgeStyle=orthogonalEdgeStyle;rounded=0;orthogonalLoop=1;jettySize=auto;html=1;" parent="1" source="jNB3o_RYDr2XuxS2xqDh-27" target="jNB3o_RYDr2XuxS2xqDh-33" edge="1">
          <mxGeometry relative="1" as="geometry" />
        </mxCell>
        <mxCell id="jNB3o_RYDr2XuxS2xqDh-27" value="创建红包" style="rounded=0;whiteSpace=wrap;html=1;" parent="1" vertex="1">
          <mxGeometry x="520" y="880" width="120" height="60" as="geometry" />
        </mxCell>
        <mxCell id="jNB3o_RYDr2XuxS2xqDh-29" value="领取子红包" style="rounded=0;whiteSpace=wrap;html=1;" parent="1" vertex="1">
          <mxGeometry x="510" y="1070" width="120" height="60" as="geometry" />
        </mxCell>
        <mxCell id="jNB3o_RYDr2XuxS2xqDh-31" value="发放对应金额的津贴、...." style="rounded=0;whiteSpace=wrap;html=1;" parent="1" vertex="1">
          <mxGeometry x="510" y="1180" width="120" height="60" as="geometry" />
        </mxCell>
        <mxCell id="jNB3o_RYDr2XuxS2xqDh-33" value="预生成子红包" style="rounded=0;whiteSpace=wrap;html=1;" parent="1" vertex="1">
          <mxGeometry x="707" y="880" width="120" height="60" as="geometry" />
        </mxCell>
      </root>
    </mxGraphModel>
  </diagram>
  <diagram id="_IJ7-B_lJ-k1qJURh8ye" name="Page-2">
    <mxGraphModel dx="1722" dy="2064" grid="1" gridSize="10" guides="1" tooltips="1" connect="1" arrows="1" fold="1" page="1" pageScale="1" pageWidth="827" pageHeight="1169" math="0" shadow="0">
      <root>
        <mxCell id="RA3w30g8QkZXKEBinChL-0" />
        <mxCell id="RA3w30g8QkZXKEBinChL-1" parent="RA3w30g8QkZXKEBinChL-0" />
        <mxCell id="nzGlDFoEFnkzXqgztpL0-2" value="&lt;span style=&quot;font-size: 8px&quot;&gt;营销业务&lt;/span&gt;" style="rounded=0;whiteSpace=wrap;html=1;fillColor=#fff2cc;strokeColor=#d6b656;" vertex="1" parent="RA3w30g8QkZXKEBinChL-1">
          <mxGeometry x="325" y="-810" width="90" height="20" as="geometry" />
        </mxCell>
        <mxCell id="nzGlDFoEFnkzXqgztpL0-4" value="" style="endArrow=none;dashed=1;html=1;fillColor=#f8cecc;strokeColor=#b85450;" edge="1" parent="RA3w30g8QkZXKEBinChL-1">
          <mxGeometry width="50" height="50" relative="1" as="geometry">
            <mxPoint x="370" y="-110" as="sourcePoint" />
            <mxPoint x="370" y="-774" as="targetPoint" />
          </mxGeometry>
        </mxCell>
        <mxCell id="nzGlDFoEFnkzXqgztpL0-5" value="&lt;span style=&quot;font-size: 8px&quot;&gt;抽奖服务&lt;/span&gt;" style="rounded=0;whiteSpace=wrap;html=1;fillColor=#fff2cc;strokeColor=#d6b656;" vertex="1" parent="RA3w30g8QkZXKEBinChL-1">
          <mxGeometry x="686" y="-810" width="72" height="20" as="geometry" />
        </mxCell>
        <mxCell id="nzGlDFoEFnkzXqgztpL0-6" value="&lt;font style=&quot;font-size: 8px&quot;&gt;db/redis&lt;/font&gt;" style="rounded=0;whiteSpace=wrap;html=1;fillColor=#fff2cc;strokeColor=#d6b656;" vertex="1" parent="RA3w30g8QkZXKEBinChL-1">
          <mxGeometry x="930" y="-810" width="80" height="20" as="geometry" />
        </mxCell>
        <mxCell id="nzGlDFoEFnkzXqgztpL0-7" value="&lt;span style=&quot;font-size: 8px&quot;&gt;奖励实体&lt;/span&gt;" style="rounded=0;whiteSpace=wrap;html=1;fillColor=#fff2cc;strokeColor=#d6b656;" vertex="1" parent="RA3w30g8QkZXKEBinChL-1">
          <mxGeometry x="1150" y="-810" width="208" height="20" as="geometry" />
        </mxCell>
        <mxCell id="nzGlDFoEFnkzXqgztpL0-8" value="" style="endArrow=none;dashed=1;html=1;fillColor=#f8cecc;strokeColor=#b85450;" edge="1" parent="RA3w30g8QkZXKEBinChL-1">
          <mxGeometry width="50" height="50" relative="1" as="geometry">
            <mxPoint x="722" y="-120" as="sourcePoint" />
            <mxPoint x="722" y="-774" as="targetPoint" />
          </mxGeometry>
        </mxCell>
        <mxCell id="nzGlDFoEFnkzXqgztpL0-9" value="" style="endArrow=none;dashed=1;html=1;fillColor=#f8cecc;strokeColor=#b85450;" edge="1" parent="RA3w30g8QkZXKEBinChL-1">
          <mxGeometry width="50" height="50" relative="1" as="geometry">
            <mxPoint x="970" y="-120" as="sourcePoint" />
            <mxPoint x="970" y="-766" as="targetPoint" />
          </mxGeometry>
        </mxCell>
        <mxCell id="nzGlDFoEFnkzXqgztpL0-10" value="" style="endArrow=none;dashed=1;html=1;fillColor=#f8cecc;strokeColor=#b85450;" edge="1" parent="RA3w30g8QkZXKEBinChL-1">
          <mxGeometry width="50" height="50" relative="1" as="geometry">
            <mxPoint x="1253" y="-120" as="sourcePoint" />
            <mxPoint x="1253" y="-774" as="targetPoint" />
          </mxGeometry>
        </mxCell>
        <mxCell id="nzGlDFoEFnkzXqgztpL0-16" value="" style="shape=link;html=1;strokeWidth=2;" edge="1" parent="RA3w30g8QkZXKEBinChL-1" source="nzGlDFoEFnkzXqgztpL0-25">
          <mxGeometry width="100" relative="1" as="geometry">
            <mxPoint x="194" y="-462" as="sourcePoint" />
            <mxPoint x="1380" y="-462" as="targetPoint" />
          </mxGeometry>
        </mxCell>
        <mxCell id="nzGlDFoEFnkzXqgztpL0-20" value="" style="endArrow=classic;html=1;fillColor=#f8cecc;strokeColor=#b85450;" edge="1" parent="RA3w30g8QkZXKEBinChL-1">
          <mxGeometry width="50" height="50" relative="1" as="geometry">
            <mxPoint x="380" y="-680" as="sourcePoint" />
            <mxPoint x="700" y="-680" as="targetPoint" />
          </mxGeometry>
        </mxCell>
        <mxCell id="nzGlDFoEFnkzXqgztpL0-21" value="&lt;span style=&quot;font-size: 8px&quot;&gt;创建抽奖规则&lt;/span&gt;" style="edgeLabel;html=1;align=center;verticalAlign=middle;resizable=0;points=[];" vertex="1" connectable="0" parent="RA3w30g8QkZXKEBinChL-1">
          <mxGeometry x="250" y="-424" as="geometry">
            <mxPoint x="209" y="-274" as="offset" />
          </mxGeometry>
        </mxCell>
        <mxCell id="nzGlDFoEFnkzXqgztpL0-22" value="" style="endArrow=classic;html=1;fillColor=#f8cecc;strokeColor=#b85450;" edge="1" parent="RA3w30g8QkZXKEBinChL-1">
          <mxGeometry width="50" height="50" relative="1" as="geometry">
            <mxPoint x="730" y="-660" as="sourcePoint" />
            <mxPoint x="950" y="-660" as="targetPoint" />
          </mxGeometry>
        </mxCell>
        <mxCell id="nzGlDFoEFnkzXqgztpL0-24" value="" style="shape=link;html=1;strokeWidth=2;" edge="1" parent="RA3w30g8QkZXKEBinChL-1" source="nzGlDFoEFnkzXqgztpL0-35">
          <mxGeometry width="100" relative="1" as="geometry">
            <mxPoint x="198" y="-747" as="sourcePoint" />
            <mxPoint x="1380" y="-747" as="targetPoint" />
          </mxGeometry>
        </mxCell>
        <mxCell id="nzGlDFoEFnkzXqgztpL0-25" value="2、抽奖" style="rounded=0;whiteSpace=wrap;html=1;strokeWidth=2;fillColor=#D9D9D9;fontSize=16;" vertex="1" parent="RA3w30g8QkZXKEBinChL-1">
          <mxGeometry x="440" y="-480" width="160" height="32" as="geometry" />
        </mxCell>
        <mxCell id="nzGlDFoEFnkzXqgztpL0-26" value="" style="shape=link;html=1;strokeWidth=2;" edge="1" parent="RA3w30g8QkZXKEBinChL-1" target="nzGlDFoEFnkzXqgztpL0-25">
          <mxGeometry width="100" relative="1" as="geometry">
            <mxPoint x="280" y="-464" as="sourcePoint" />
            <mxPoint x="1382" y="-462" as="targetPoint" />
          </mxGeometry>
        </mxCell>
        <mxCell id="nzGlDFoEFnkzXqgztpL0-29" value="" style="endArrow=classic;html=1;fillColor=#f8cecc;strokeColor=#b85450;" edge="1" parent="RA3w30g8QkZXKEBinChL-1">
          <mxGeometry width="50" height="50" relative="1" as="geometry">
            <mxPoint x="710" y="-210" as="sourcePoint" />
            <mxPoint x="380" y="-210" as="targetPoint" />
          </mxGeometry>
        </mxCell>
        <mxCell id="nzGlDFoEFnkzXqgztpL0-30" value="" style="endArrow=classic;html=1;fillColor=#f8cecc;strokeColor=#b85450;" edge="1" parent="RA3w30g8QkZXKEBinChL-1">
          <mxGeometry width="50" height="50" relative="1" as="geometry">
            <mxPoint x="373" y="-370" as="sourcePoint" />
            <mxPoint x="700" y="-370" as="targetPoint" />
          </mxGeometry>
        </mxCell>
        <mxCell id="nzGlDFoEFnkzXqgztpL0-31" style="edgeStyle=orthogonalEdgeStyle;rounded=0;orthogonalLoop=1;jettySize=auto;html=1;exitX=0.5;exitY=1;exitDx=0;exitDy=0;" edge="1" parent="RA3w30g8QkZXKEBinChL-1">
          <mxGeometry relative="1" as="geometry">
            <mxPoint x="275" y="-119" as="sourcePoint" />
            <mxPoint x="275" y="-119" as="targetPoint" />
          </mxGeometry>
        </mxCell>
        <mxCell id="nzGlDFoEFnkzXqgztpL0-32" value="&lt;div style=&quot;text-align: center&quot;&gt;&lt;br&gt;&lt;/div&gt;" style="text;whiteSpace=wrap;html=1;" vertex="1" parent="RA3w30g8QkZXKEBinChL-1">
          <mxGeometry x="382" y="210" width="96" height="17" as="geometry" />
        </mxCell>
        <mxCell id="nzGlDFoEFnkzXqgztpL0-35" value="1、创建抽奖规则" style="rounded=0;whiteSpace=wrap;html=1;strokeWidth=2;fillColor=#D9D9D9;fontSize=16;" vertex="1" parent="RA3w30g8QkZXKEBinChL-1">
          <mxGeometry x="440" y="-763" width="160" height="32" as="geometry" />
        </mxCell>
        <mxCell id="nzGlDFoEFnkzXqgztpL0-36" value="" style="shape=link;html=1;strokeWidth=2;" edge="1" parent="RA3w30g8QkZXKEBinChL-1" target="nzGlDFoEFnkzXqgztpL0-35">
          <mxGeometry width="100" relative="1" as="geometry">
            <mxPoint x="280" y="-747" as="sourcePoint" />
            <mxPoint x="1386.0000000000005" y="-747" as="targetPoint" />
          </mxGeometry>
        </mxCell>
        <mxCell id="nzGlDFoEFnkzXqgztpL0-41" value="" style="endArrow=classic;html=1;fillColor=#f8cecc;strokeColor=#b85450;" edge="1" parent="RA3w30g8QkZXKEBinChL-1">
          <mxGeometry width="50" height="50" relative="1" as="geometry">
            <mxPoint x="730" y="-350" as="sourcePoint" />
            <mxPoint x="950" y="-350" as="targetPoint" />
          </mxGeometry>
        </mxCell>
        <mxCell id="nzGlDFoEFnkzXqgztpL0-44" value="" style="endArrow=classic;html=1;fillColor=#f8cecc;strokeColor=#b85450;" edge="1" parent="RA3w30g8QkZXKEBinChL-1">
          <mxGeometry width="50" height="50" relative="1" as="geometry">
            <mxPoint x="726.5" y="-280" as="sourcePoint" />
            <mxPoint x="1240" y="-280" as="targetPoint" />
          </mxGeometry>
        </mxCell>
        <mxCell id="nzGlDFoEFnkzXqgztpL0-45" value="" style="endArrow=classic;html=1;fillColor=#f8cecc;strokeColor=#b85450;" edge="1" parent="RA3w30g8QkZXKEBinChL-1">
          <mxGeometry width="50" height="50" relative="1" as="geometry">
            <mxPoint x="1230" y="-250" as="sourcePoint" />
            <mxPoint x="730" y="-250" as="targetPoint" />
          </mxGeometry>
        </mxCell>
        <mxCell id="nzGlDFoEFnkzXqgztpL0-53" value="" style="shape=link;html=1;" edge="1" parent="RA3w30g8QkZXKEBinChL-1">
          <mxGeometry width="100" relative="1" as="geometry">
            <mxPoint x="280" y="-160" as="sourcePoint" />
            <mxPoint x="1380" y="-160" as="targetPoint" />
          </mxGeometry>
        </mxCell>
        <mxCell id="nzGlDFoEFnkzXqgztpL0-55" value="&lt;font style=&quot;font-size: 8px&quot;&gt;APP/业务上游&lt;/font&gt;" style="rounded=0;whiteSpace=wrap;html=1;fillColor=#fff2cc;strokeColor=#d6b656;" vertex="1" parent="RA3w30g8QkZXKEBinChL-1">
          <mxGeometry x="325" y="-120" width="90" height="20" as="geometry" />
        </mxCell>
        <mxCell id="nzGlDFoEFnkzXqgztpL0-56" value="&lt;font style=&quot;font-size: 8px&quot;&gt;管理服务&lt;/font&gt;" style="rounded=0;whiteSpace=wrap;html=1;fillColor=#fff2cc;strokeColor=#d6b656;" vertex="1" parent="RA3w30g8QkZXKEBinChL-1">
          <mxGeometry x="686" y="-114" width="72" height="20" as="geometry" />
        </mxCell>
        <mxCell id="nzGlDFoEFnkzXqgztpL0-57" value="&lt;font style=&quot;font-size: 8px&quot;&gt;db/redis&lt;/font&gt;" style="rounded=0;whiteSpace=wrap;html=1;fillColor=#fff2cc;strokeColor=#d6b656;" vertex="1" parent="RA3w30g8QkZXKEBinChL-1">
          <mxGeometry x="940" y="-114" width="80" height="20" as="geometry" />
        </mxCell>
        <mxCell id="nzGlDFoEFnkzXqgztpL0-58" value="&lt;font style=&quot;font-size: 8px&quot;&gt;奖励实体&lt;/font&gt;" style="rounded=0;whiteSpace=wrap;html=1;fillColor=#fff2cc;strokeColor=#d6b656;" vertex="1" parent="RA3w30g8QkZXKEBinChL-1">
          <mxGeometry x="1150" y="-114" width="208" height="20" as="geometry" />
        </mxCell>
        <mxCell id="nzGlDFoEFnkzXqgztpL0-62" value="" style="endArrow=classic;html=1;fillColor=#f8cecc;strokeColor=#b85450;" edge="1" parent="RA3w30g8QkZXKEBinChL-1">
          <mxGeometry width="50" height="50" relative="1" as="geometry">
            <mxPoint x="950" y="-630" as="sourcePoint" />
            <mxPoint x="380" y="-630" as="targetPoint" />
          </mxGeometry>
        </mxCell>
        <mxCell id="nzGlDFoEFnkzXqgztpL0-63" value="抽奖规则ID" style="text;html=1;align=center;verticalAlign=middle;resizable=0;points=[];autosize=1;" vertex="1" parent="RA3w30g8QkZXKEBinChL-1">
          <mxGeometry x="415" y="-650" width="80" height="20" as="geometry" />
        </mxCell>
        <mxCell id="nzGlDFoEFnkzXqgztpL0-64" value="抽奖规则ID、其他参数" style="text;html=1;align=center;verticalAlign=middle;resizable=0;points=[];autosize=1;" vertex="1" parent="RA3w30g8QkZXKEBinChL-1">
          <mxGeometry x="380" y="-400" width="140" height="20" as="geometry" />
        </mxCell>
        <mxCell id="nzGlDFoEFnkzXqgztpL0-65" value="计算命中奖励实体，回调" style="text;html=1;align=center;verticalAlign=middle;resizable=0;points=[];autosize=1;" vertex="1" parent="RA3w30g8QkZXKEBinChL-1">
          <mxGeometry x="730" y="-310" width="150" height="20" as="geometry" />
        </mxCell>
      </root>
    </mxGraphModel>
  </diagram>
</mxfile>
